<?xml version="1.0" encoding="UTF-8" standalone="no"?> <!-- Created with Vectornator for iOS (http://vectornator.io/) --><!DOCTYPE svg PUBLIC "-//W3C//DTD SVG 1.1//EN" "http://www.w3.org/Graphics/SVG/1.1/DTD/svg11.dtd">
<svg height="100%" style="fill-rule:nonzero;clip-rule:evenodd;stroke-linecap:round;stroke-linejoin:round;" xmlns:xlink="http://www.w3.org/1999/xlink" xmlns="http://www.w3.org/2000/svg" xml:space="preserve" width="100%" xmlns:vectornator="http://vectornator.io" version="1.1" viewBox="0 0 110 110">
<metadata>
<vectornator:setting key="DimensionsVisible" value="1"/>
<vectornator:setting key="PencilOnly" value="0"/>
<vectornator:setting key="SnapToPoints" value="0"/>
<vectornator:setting key="OutlineMode" value="0"/>
<vectornator:setting key="CMYKEnabledKey" value="0"/>
<vectornator:setting key="RulersVisible" value="1"/>
<vectornator:setting key="SnapToEdges" value="0"/>
<vectornator:setting key="GuidesVisible" value="1"/>
<vectornator:setting key="DisplayWhiteBackground" value="0"/>
<vectornator:setting key="doHistoryDisabled" value="0"/>
<vectornator:setting key="SnapToGuides" value="1"/>
<vectornator:setting key="TimeLapseWatermarkDisabled" value="0"/>
<vectornator:setting key="Units" value="Pixels"/>
<vectornator:setting key="DynamicGuides" value="0"/>
<vectornator:setting key="IsolateActiveLayer" value="0"/>
<vectornator:setting key="SnapToGrid" value="0"/>
</metadata>
<defs/>
<g id="Layer 1" vectornator:layerName="Layer 1">
<path d="M197.081+148.67C197.181+148.87+197.281+149.069+197.38+149.269" opacity="0.7" fill="#83b68e"/>
<g opacity="1">
<path d="M29.6109+22.9429C28.1924+20.3845+28.6672+19.633+29.2472+19.8283C29.4698+19.9032+31.0095+20.9985+31.6115+21.2373C32.4836+21.5832+32.7754+21.4968+32.7754+21.4968C33.9505+21.5824+37.3584+19.9395+37.3584+19.9395C38.3372+19.3233+39.3885+18.6512+40.5956+18.1598C41.1457+17.8305+41.1215+17.857+41.6796+17.5402C42.3511+17.5345+43.7923+16.7283+44.1965+17.2328C44.3836+18.1386+47.1064+18.4564+45.0695+21.6081C43.0326+24.7597+43.0835+25.3472+42.6689+26.317C41.5493+28.5303+42.2114+27.2025+41.19+29.4006C39.8292+32.3291+41.4765+30.3171+39.5646+32.5989C38.0148+34.4485+37.4856+34.0631+37.1832+34.1787C36.8807+34.2943+37.6368+33.8705+36.1451+34.776C34.8569+35.5579+34.9477+35.3251+34.6304+35.4383C33.1007+36.0283+34.4615+35.4889+32.8361+36.221C31.2357+36.5176+28.7159+37.2999+30.8705+36.221C33.0251+35.1421+30.9083+36.3751+33.5165+34.8723C33.7695+34.6654+33.9869+34.4881+34.1738+34.3363C36.2489+32.6505+34.5674+34.0931+36.1625+32.7145C36.9941+31.6356+37.1658+30.8149+37.9555+30.171C38.1445+30.0169+36.1217+32.7316+37.7585+29.7653C39.3953+26.799+39.2417+26.5206+39.8681+25.0564C40.1825+24.3216+40.3695+23.6039+40.4974+22.9063C40.7787+21.3717+40.7738+19.9345+41.2088+18.6268C41.6537+18.7446+42.1872+19.155+42.4929+19.5504C42.0067+19.781+41.0377+20.2498+41.0377+20.2498L38.8371+21.8573C38.8371+21.8573+38.3298+22.2298+38.0703+22.4209C36.9661+23.2342+35.9355+24.0929+34.9214+24.5002C33.6832+24.9974+32.7027+25.9833+31.6478+25.3901L30.5566+24.0923L29.6109+22.9429Z" opacity="0.7" fill="#83b68e"/>
<path d="M52.6028+4.87221C52.7198+5.63258+51.1555+5.32166+52.9634+4.74527C54.1996+4.35116+52.6848+6.49331+52.4382+8.68736C52.2227+10.6051+52.0732+13.0133+51.9189+15.2995C51.8298+16.6201+51.739+17.8999+51.6329+19.021C51.55+19.8968+51.6433+22.7794+51.6679+23.6903C51.7277+25.9026+51.8247+26.89+52.0317+29.1802C52.4123+33.3898+53.3233+37.3515+53.3231+41.1281C53.1961+41.5433+52.861+41.8252+52.5566+42.0784C51.7343+42.7879+50.3452+43.2519+49.7998+42.9518C48.6067+42.2952+49.7226+42.6039+47.2052+39.7054C44.5871+37.3205+45.8961+38.2011+45.6276+38.1277C45.4262+37.981+44.8149+37.4376+44.7213+37.4306C43.5801+37.027+41.9865+35.8996+42.6403+35.6695C43.3929+35.7095+45.9975+36.2497+46.7534+36.3644C47.5581+36.4866+47.8585+36.8143+48.6559+36.9375C49.9218+37.4699+50.9659+38.6641+51.9742+39.5097C51.5286+39.4195+50.1581+37.4315+49.5429+37.869C49.1988+38.1137+49.5187+37.2359+49.2862+37.3205C49.1208+29.219+49.3135+23.5889+48.7268+15.0406C48.6013+13.2113+48.3662+11.3239+48.0856+9.58181C47.9251+8.58565+47.7497+7.63696+47.5714+6.77372C47.2563+5.39591+46.451+1.18591+47.1513+2.98473C47.1513+2.98473+47.4527+3.92133+48.5868+4.32427C49.2449+4.5581+50.7572+4.70753+50.7572+4.70753L52.6028+4.87221Z" opacity="0.7" fill="#83b68e"/>
<path d="M64.8109+11.0919C64.6433+11.5875+64.7355+11.9017+64.3212+12.3644C64.075+12.6395+64.1788+13.6223+63.4173+14.1383C61.642+15.3411+61.803+15.2099+61.078+15.7225C60.7571+15.9494+60.2625+16.3025+59.3495+16.9533C58.6914+17.3689+55.797+19.5119+55.0558+19.614C54.6802+19.6588+53.3748+20.8883+53.0099+20.9855C52.0255+21.8314+52.9466+20.1925+53.1349+19.6526C53.3233+19.1127+53.0219+19.9997+53.1726+19.6912C53.3233+19.3827+54.9805+16.3363+56.1857+13.0971C56.826+11.8246+56.7884+11.8246+57.9183+10.0507C58.3913+9.30826+59.4847+8.61104+60.2535+8.12266C60.9232+7.69722+63.3043+7.89128+63.3043+7.89128C63.3043+7.89128+64.3856+7.70825+64.7355+9.85793C64.8109+10.3207+64.8109+11.0919+64.8109+11.0919Z" opacity="0.7" fill="#83b68e"/>
<path d="M51.6958+20.7006C51.7241+21.0557+51.7613+21.419+51.921+21.745C53.0607+23.2979+55.3052+24.1375+56.8942+25.2509C58.4261+26.3242+61.1075+27.6537+62.8661+28.3034C66.6651+29.6716+68.937+29.9372+72.8542+30.8091C73.4771+31.1111+78.022+29.8626+77.6493+31.5198C76.7396+31.913+76.5062+32.489+75.7152+33.5691C74.7389+34.9021+71.469+36.192+70.238+36.3829C62.8102+35.8968+55.1358+28.4254+51.7748+21.9688C51.6221+21.5626+51.6459+21.1226+51.6958+20.7006L51.6958+20.7006Z" opacity="0.7" fill="#83b68e"/>
<path stroke="#83b68e" stroke-width="1" d="M53.5329+5.19317C52.8577+6.57572+52.3281+8.14068+51.9588+9.653C51.7036+10.6983+51.6899+11.7794+51.483+12.8386C51.4224+13.1489+51.5578+13.5066+51.483+13.813C51.2909+14.5998+51.5042+15.4816+51.3732+16.2865C51.2843+16.8327+51.4304+17.4764+51.3+18.0105C51.193+18.4485+51.2633+18.9768+51.2633+19.4346C51.2633+20.2045+51.2142+21.0065+51.3366+21.7582C51.4015+22.157+51.3366+22.6268+51.3366+23.0325C51.3366+23.4118+51.3737+23.8599+51.4464+24.2318C51.5588+24.8075+51.4175+25.4252+51.5562+25.9932C51.6193+26.2519+51.493+26.559+51.5562+26.8177C51.6987+27.4011+51.6225+28.0567+51.7392+28.6541C52.1499+30.7564+52.1619+32.8999+52.5079+35.0253C52.7669+36.6161+53.0216+38.2182+53.2766+39.7849C53.2993+39.9243+53.5213+41.2456+53.4963+41.284C53.4449+41.3629+53.2698+41.366+53.2034+41.4339C52.7933+41.8538+52.2791+42.1398+51.7758+42.4833C51.3802+42.7533+50.3082+43.4288+49.8357+43.3078C49.5616+43.2376+49.3512+42.4965+49.1768+42.2584C48.6569+41.5486+48.1566+40.8685+47.6028+40.1597C46.8586+39.2073+46.0978+38.4138+45.1503+37.6862C44.7592+37.3859+44.2932+37.1967+43.9057+36.8992C43.4083+36.5173+42.9252+36.1724+42.3682+35.8873" fill="none" stroke-linecap="round" opacity="0.7" stroke-linejoin="round"/>
<path stroke="#83b68e" stroke-width="1" d="M28.6502+20.6089C28.6502+20.5107+28.5542+20.3141+28.6502+20.3141C28.7523+20.3141+28.8477+20.7546+28.8661+20.83C28.9217+21.0575+29.1348+21.2303+29.1901+21.4565C29.2521+21.7106+29.3458+21.9842+29.442+22.2304C30.0123+23.6899+31.1892+25.5971+32.9693+25.1415C33.6841+24.9586+34.376+24.439+34.9489+23.9992C35.2575+23.7622+35.6632+23.6119+35.9927+23.4096C37.1693+22.6868+38.2675+21.8286+39.376+20.9774C39.9763+20.5165+40.5497+19.9932+41.1396+19.5403C41.4135+19.33+41.7333+19.0799+41.9674+18.8401C41.9864+18.8207+42.0394+18.8308+42.0394+18.8033C42.0394+18.759+41.9508+18.8374+41.9314+18.877" fill="none" stroke-linecap="round" opacity="0.7" stroke-linejoin="round"/>
<path stroke="#83b68e" stroke-width="1" d="M40.9237+20.9037C40.9237+21.5495+40.6675+22.219+40.5637+22.8568C40.4761+23.3949+40.4361+23.9354+40.3478+24.4782C40.2285+25.211+39.8737+25.9039+39.6999+26.6155C39.6351+26.881+39.4277+27.1246+39.376+27.3894C39.3081+27.7368+39.1091+28.1277+38.9801+28.458C38.9056+28.6486+38.7051+28.8103+38.6561+29.0108C38.5832+29.3095+38.3668+29.6032+38.2242+29.8952C37.5426+31.2908+36.4476+32.6874+35.2368+33.6171C34.9769+33.8167+34.8116+34.1186+34.553+34.3172C33.5531+35.085+32.3033+35.8143+31.0977+36.1229C30.7904+36.2015+30.5247+36.4545+30.1979+36.4545" fill="none" stroke-linecap="round" opacity="0.7" stroke-linejoin="round"/>
<path stroke="#83b68e" stroke-width="1" d="M53.3165+20.9742C53.5918+20.6923+53.9585+20.5746+54.2642+20.3398C54.833+19.903+55.4017+19.5216+56.0139+19.1456C56.4849+18.8562+56.8647+18.3896+57.2897+18.0633C57.6592+17.7795+58.0935+17.5621+58.4925+17.3169C59.1536+16.9108+59.7609+16.4183+60.4245+16.0107C61.4507+15.3803+63.0175+14.7226+63.7415+13.7342C64.0931+13.2542+64.1873+12.7797+64.3977+12.2414C64.6125+11.6914+64.9202+11.1096+64.7986+10.4874C64.7573+10.2756+64.6511+10.0666+64.6164+9.85294C64.583+9.64779+64.5556+9.26824+64.3977+9.10654C64.2789+8.98491+64.1039+8.87969+63.9967+8.73335C63.6704+8.28786+63.3098+7.69363+62.6844+7.80035C61.9585+7.92422+61.002+8.10985+60.3516+8.50943C60.0067+8.7213+59.672+8.97165+59.3309+9.18118C58.5989+9.63084+57.824+10.1851+57.3626+10.9725C57.1743+11.2937+57.0787+11.6932+56.8887+12.0175C56.1387+13.2973+55.6082+14.6233+55.0661+16.0107C54.8474+16.5706+54.5639+17.151+54.3007+17.6901C54.1575+17.9832+53.8997+18.1923+53.8997+18.5485" fill="none" stroke-linecap="round" opacity="0.7" stroke-linejoin="round"/>
<path stroke="#83b68e" stroke-width="1" d="M53.3419+24.7628C53.5636+25.2168+53.8784+25.6569+54.1803+26.0689C54.3373+26.2833+54.4123+26.5619+54.5812+26.778C55.4188+27.85+56.3003+28.9787+57.3515+29.8756C57.787+30.2471+58.3006+30.586+58.7002+30.9952C61.5537+33.9166+65.313+36.0772+69.344+36.5931C69.8637+36.6596+70.6595+36.5898+71.0572+36.1826C71.1676+36.0696+71.2426+35.9717+71.3852+35.8841C71.8513+35.5977+72.3347+35.3158+72.8068+35.0257C72.9943+34.9105+73.1673+34.694+73.3172+34.5405C73.9144+33.9291+74.5171+33.3753+75.0304+32.6745C75.3751+32.204+75.7883+31.7518+76.1239+31.2937C76.1892+31.2046+76.4605+30.9666+76.3426+30.8459C76.2084+30.7085+75.1702+30.6593+74.9575+30.6593C73.7761+30.6593+72.6496+30.7092+71.4946+30.4727C71.1205+30.3961+70.7754+30.1388+70.4011+30.0622C69.2873+29.8341+68.2096+29.3212+67.084+29.1292C66.7637+29.0745+66.4583+28.8777+66.1363+28.8306C65.3054+28.7091+64.4847+28.4452+63.6576+28.2335C60.7184+27.4812+57.6699+26.4028+55.3102+24.3896" fill="none" stroke-linecap="round" opacity="0.7" stroke-linejoin="round"/>
</g>
<path stroke="#83b68e" stroke-width="1.23481" d="M167.214+246.439C167.214+245.203+166.611+244.444+166.132+243.328" fill="none" stroke-linecap="round" opacity="1" stroke-linejoin="round"/>
<path stroke="#83b68e" stroke-width="1" d="M161.029+215.158C160.444+217.677+159.859+220.196+159.274+222.715" fill="none" stroke-linecap="round" opacity="1" stroke-linejoin="round"/>
</g>
<g id="Layer 3" vectornator:layerName="Layer 3">
<g opacity="1">
<path stroke="#83b68e" stroke-width="1.23481" d="M30.0916+60.2853C30.0968+62.1438+29.8355+63.9864+29.8407+65.8711" fill="none" stroke-linecap="round" opacity="1" stroke-linejoin="round"/>
<g opacity="1">
<path stroke="#83b68e" stroke-width="1.23481" d="M25.3574+60.0102C24.35+60.4827+19.6695+63.6877+20.3048+64.8568C20.3313+64.9055+25.596+65.8212+26.1747+65.8185" fill="none" stroke-linecap="round" opacity="1" stroke-linejoin="round"/>
<path stroke="#83b68e" stroke-width="1.23481" d="M30.1642+62.2135C30.161+61.1422+32.0242+60.3487+32.9614+61.2111C33.973+62.142+32.8303+65.5301+33.3757+66.032C33.5364+66.1798+33.5078+65.6232+33.5072+65.413C33.5061+65.0361+33.5874+64.6778+33.6372+64.2995C33.7562+63.3967+33.7864+60.9551+35.0933+60.7064C37.0185+60.3401+36.5746+65.5974+36.5773+66.5116" fill="none" stroke-linecap="round" opacity="1" stroke-linejoin="round"/>
<path stroke="#83b68e" stroke-width="1.23481" d="M40.428+61.0523C40.1538+60.5479+40.1652+62.3767+40.1664+62.7848C40.1696+63.8617+40.0395+64.9659+40.0426+66.0006" fill="none" stroke-linecap="round" opacity="1" stroke-linejoin="round"/>
<path stroke="#83b68e" stroke-width="1.23481" d="M42.6936+60.6707C42.0722+60.9622+46.1607+60.2859+46.4275+60.7768C46.585+61.0667+43.6781+64.5743+43.2402+65.12C43.1213+65.268+42.834+65.4862+42.975+65.6158C43.2273+65.8481+44.5991+65.5385+44.975+65.6064C45.4692+65.6957+46.2496+65.9373+46.7088+65.722" fill="none" stroke-linecap="round" opacity="1" stroke-linejoin="round"/>
<path stroke="#83b68e" stroke-width="1.23481" d="M48.6939+60.6425C48.6986+62.2365+48.4579+64.7417+49.7763+65.9549C51.6841+67.7104+53.375+65.1919+53.6365+63.7108C53.7967+62.8038+53.2569+61.6593+52.8281+60.8704" fill="none" stroke-linecap="round" opacity="1" stroke-linejoin="round"/>
<path stroke="#83b68e" stroke-width="1.23481" d="M57.7609+60.5999C56.9694+60.2371+55.8925+61.3722+55.7652+62.0932C55.3159+64.6375+56.0018+65.8019+58.843+65.7886C59.8494+65.7838+60.2556+65.5099+60.7064+64.6669" fill="none" stroke-linecap="round" opacity="1" stroke-linejoin="round"/>
<path stroke="#83b68e" stroke-width="1.23481" d="M64.6298+61.2477C62.7747+59.5338+60.3179+64.9528+63.7754+65.3944C66.5843+65.7532+66.4554+62.9343+64.6298+61.2477Z" fill="none" stroke-linecap="round" opacity="1" stroke-linejoin="round"/>
<path stroke="#83b68e" stroke-width="1.23481" d="M70.5629+61.0343C69.3682+58.8361+64.1076+66.6611+69.9101+65.7366C70.0777+65.7098+71.1877+65.4616+71.2424+65.3593C71.6011+64.6885+71.1043+57.1111+70.6823+56.3346" fill="none" stroke-linecap="round" opacity="1" stroke-linejoin="round"/>
<path stroke="#83b68e" stroke-width="1.23481" d="M72.8336+62.3839C73.2918+62.2755+75.6368+62.2408+75.8986+61.7512C76.4288+60.7599+75.0045+58.5372+73.7582+59.4117C70.1432+61.9484+74.9042+67.9626+76.707+64.5916" fill="none" stroke-linecap="round" opacity="1" stroke-linejoin="round"/>
<path stroke="#83b68e" stroke-width="1.23481" d="M78.2877+58.0301C78.838+58.1975+83.8925+59.5367+83.8938+59.9824C83.8984+61.5378+80.1329+63.7814+79.3756+65.1974" fill="none" stroke-linecap="round" opacity="1" stroke-linejoin="round"/>
</g>
</g>
</g>
</svg>
