<?xml version="1.0" encoding="UTF-8" standalone="no"?> <!-- Created with Vectornator for iOS (http://vectornator.io/) --><!DOCTYPE svg PUBLIC "-//W3C//DTD SVG 1.1//EN" "http://www.w3.org/Graphics/SVG/1.1/DTD/svg11.dtd">
<svg height="100%" style="fill-rule:nonzero;clip-rule:evenodd;stroke-linecap:round;stroke-linejoin:round;" xmlns:xlink="http://www.w3.org/1999/xlink" xmlns="http://www.w3.org/2000/svg" xml:space="preserve" width="100%" xmlns:vectornator="http://vectornator.io" version="1.1" viewBox="0 0 500 500">
<metadata>
<vectornator:setting key="DimensionsVisible" value="1"/>
<vectornator:setting key="PencilOnly" value="0"/>
<vectornator:setting key="SnapToPoints" value="0"/>
<vectornator:setting key="OutlineMode" value="0"/>
<vectornator:setting key="CMYKEnabledKey" value="0"/>
<vectornator:setting key="RulersVisible" value="1"/>
<vectornator:setting key="SnapToEdges" value="0"/>
<vectornator:setting key="GuidesVisible" value="1"/>
<vectornator:setting key="DisplayWhiteBackground" value="0"/>
<vectornator:setting key="doHistoryDisabled" value="0"/>
<vectornator:setting key="SnapToGuides" value="1"/>
<vectornator:setting key="TimeLapseWatermarkDisabled" value="0"/>
<vectornator:setting key="Units" value="Pixels"/>
<vectornator:setting key="DynamicGuides" value="0"/>
<vectornator:setting key="IsolateActiveLayer" value="0"/>
<vectornator:setting key="SnapToGrid" value="0"/>
</metadata>
<defs/>
<g id="Layer 2" vectornator:layerName="Layer 2">
<path d="M47.0614+216.158C35.4691+195.738+39.3494+189.74+44.089+191.299C45.9077+191.897+58.4906+200.639+63.4095+202.545C70.5366+205.306+72.9211+204.616+72.9211+204.616C82.5237+205.299+110.373+192.186+110.373+192.186C118.372+187.268+126.963+181.903+136.827+177.981C141.323+175.353+141.125+175.564+145.686+173.036C151.173+172.99+162.95+166.555+166.254+170.582C167.782+177.812+190.033+180.348+173.388+205.504C156.742+230.66+157.158+235.349+153.77+243.09C144.621+260.756+150.031+250.157+141.684+267.702C130.564+291.077+144.026+275.017+128.402+293.23C115.737+307.993+111.412+304.917+108.941+305.84C106.47+306.763+112.648+303.38+100.458+310.607C89.9311+316.849+90.6728+314.99+88.0803+315.893C75.5797+320.603+86.7001+316.297+73.4174+322.141C60.3389+324.509+39.7471+330.753+57.3545+322.141C74.9619+313.529+57.6634+323.371+78.9776+311.376C81.0451+309.724+82.8215+308.31+84.3489+307.098C101.306+293.642+87.5653+305.157+100.601+294.153C107.396+285.541+108.8+278.991+115.252+273.851C116.797+272.621+100.267+294.289+113.643+270.613C127.018+246.937+125.764+244.715+130.883+233.027C133.451+227.163+134.98+221.434+136.025+215.867C138.323+203.618+138.283+192.146+141.839+181.708C145.474+182.649+149.834+185.924+152.332+189.08C148.359+190.921+140.44+194.663+140.44+194.663L122.457+207.493C122.457+207.493+118.311+210.466+116.191+211.992C107.167+218.483+98.7454+225.338+90.4582+228.588C80.3393+232.557+72.3266+240.426+63.7067+235.691L54.7896+225.333L47.0614+216.158Z" opacity="0.7" fill="#83b68e"/>
<path d="M234.949+71.9226C235.906+77.9917+223.122+75.51+237.896+70.9093C247.998+67.7637+235.62+84.8617+233.604+102.374C231.843+117.681+230.622+136.903+229.361+155.151C228.632+165.691+227.891+175.907+227.024+184.855C226.346+191.845+227.109+214.854+227.31+222.124C227.798+239.782+228.591+247.663+230.283+265.943C233.393+299.543+240.837+331.164+240.836+361.308C239.798+364.622+237.059+366.872+234.572+368.893C227.852+374.557+216.501+378.26+212.043+375.864C202.293+370.624+211.412+373.088+190.84+349.953C169.445+330.917+180.143+337.946+177.949+337.36C176.303+336.188+171.307+331.852+170.543+331.796C161.217+328.574+148.194+319.576+153.536+317.739C159.687+318.058+180.971+322.37+187.149+323.286C193.724+324.261+196.179+326.877+202.695+327.86C213.04+332.109+221.573+341.641+229.813+348.39C226.171+347.67+214.972+331.803+209.944+335.295C207.132+337.248+209.747+330.242+207.847+330.917C206.495+266.252+208.069+221.314+203.275+153.084C202.249+138.483+200.328+123.419+198.035+109.513C196.724+101.562+195.29+93.9901+193.833+87.1C191.258+76.1026+184.677+42.4994+190.4+56.8571C190.4+56.8571+192.863+64.3329+202.131+67.549C207.509+69.4154+219.868+70.6081+219.868+70.6081L234.949+71.9226Z" opacity="0.7" fill="#83b68e"/>
<path d="M334.37+113.677C333.001+117.633+333.754+120.141+330.369+123.834C328.356+126.03+329.205+133.875+322.982+137.993C308.474+147.593+309.79+146.546+303.866+150.638C301.243+152.449+297.201+155.267+289.74+160.461C284.362+163.779+260.709+180.883+254.652+181.699C251.583+182.056+240.915+191.87+237.933+192.645C229.889+199.397+237.416+186.316+238.955+182.007C240.494+177.698+238.032+184.777+239.263+182.315C240.494+179.852+254.037+155.537+263.886+129.682C269.118+119.525+268.811+119.525+278.044+105.367C281.909+99.4407+290.845+93.8757+297.127+89.9775C302.6+86.5818+322.058+88.1308+322.058+88.1308C322.058+88.1308+330.895+86.6698+333.754+103.828C334.37+107.522+334.37+113.677+334.37+113.677Z" opacity="0.7" fill="#83b68e"/>
<path d="M227.537+198.261C227.769+201.095+228.073+203.995+229.378+206.597C238.691+218.992+257.033+225.693+270.019+234.58C282.537+243.148+304.45+253.759+318.821+258.944C349.866+269.865+368.431+271.986+400.443+278.944C405.533+281.355+442.674+271.39+439.628+284.617C432.194+287.755+430.287+292.353+423.823+300.974C415.844+311.614+389.123+321.909+379.063+323.433C318.364+319.553+255.649+259.918+228.183+208.384C226.935+205.142+227.13+201.629+227.537+198.261L227.537+198.261Z" opacity="0.7" fill="#83b68e"/>
</g>
<g id="Layer 1" vectornator:layerName="Layer 1">
<path d="M197.081+148.67C197.181+148.87+197.281+149.069+197.38+149.269" opacity="0.7" fill="#83b68e"/>
<path stroke="#83b68e" stroke-width="1" d="M242.55+74.4844C237.032+85.5195+232.705+98.0106+229.687+110.082C227.601+118.425+227.489+127.054+225.798+135.508C225.303+137.985+226.41+140.84+225.798+143.286C224.228+149.566+225.972+156.604+224.901+163.029C224.174+167.388+225.368+172.526+224.303+176.789C223.429+180.285+224.003+184.502+224.003+188.156C224.003+194.301+223.602+200.703+224.602+206.703C225.132+209.886+224.602+213.636+224.602+216.873C224.602+219.901+224.906+223.478+225.499+226.446C226.418+231.041+225.263+235.971+226.397+240.505C226.913+242.57+225.88+245.022+226.397+247.086C227.561+251.743+226.939+256.976+227.892+261.744C231.248+278.524+231.347+295.633+234.174+312.597C236.29+325.295+238.372+338.082+240.456+350.587C240.641+351.699+242.455+362.246+242.251+362.553C241.831+363.183+240.4+363.207+239.858+363.749C236.507+367.101+232.304+369.383+228.191+372.125C224.959+374.28+216.198+379.672+212.337+378.706C210.097+378.146+208.378+372.231+206.953+370.33C202.703+364.665+198.616+359.236+194.09+353.579C188.008+345.977+181.791+339.643+174.048+333.836C170.852+331.439+167.044+329.929+163.877+327.554C159.813+324.506+155.865+321.753+151.313+319.477" fill="none" stroke-linecap="round" opacity="0.7" stroke-linejoin="round"/>
<path stroke="#83b68e" stroke-width="1" d="M242.251+75.6809C242.251+74.773+243.308+71.5998+242.251+70.8947C241.19+70.1876+230.288+71.493+228.191+71.493C217.435+71.493+207.456+72.4689+198.577+65.8094C197.223+64.794+195.438+63.7188+194.688+62.2198" fill="none" stroke-linecap="round" opacity="0.7" stroke-linejoin="round"/>
<path stroke="#83b68e" stroke-width="1" d="M151.912+317.982C161.657+317.982+169.825+320.308+179.133+322.169C181.895+322.722+184.389+324.392+187.21+324.862C190.388+325.391+193.31+327.324+196.483+327.853C203.195+328.972+209.823+332.172+216.226+334.733C219.524+336.052+222.698+338.717+226.097+340.417" fill="none" stroke-linecap="round" opacity="0.7" stroke-linejoin="round"/>
<path stroke="#83b68e" stroke-width="1" d="M39.2101+197.529C39.2101+196.745+38.4257+195.176+39.2101+195.176C40.0448+195.176+40.8242+198.692+40.9749+199.294C41.4287+201.109+43.1706+202.489+43.622+204.294C44.1291+206.322+44.8949+208.506+45.6809+210.471C50.3409+222.121+59.9587+237.344+74.5056+233.707C80.3471+232.247+86.0015+228.1+90.6827+224.589C93.2049+222.698+96.5204+221.498+99.2124+219.883C108.828+214.114+117.802+207.264+126.861+200.471C131.766+196.791+136.453+192.615+141.273+189C143.511+187.321+146.124+185.325+148.038+183.411C148.193+183.256+148.626+183.336+148.626+183.117C148.626+182.764+147.902+183.389+147.744+183.705" fill="none" stroke-linecap="round" opacity="0.7" stroke-linejoin="round"/>
<path stroke="#83b68e" stroke-width="1" d="M139.508+199.882C139.508+205.037+137.415+210.381+136.567+215.471C135.851+219.766+135.524+224.08+134.802+228.413C133.827+234.262+130.928+239.793+129.508+245.472C128.978+247.591+127.283+249.536+126.861+251.649C126.306+254.422+124.68+257.542+123.625+260.179C123.017+261.7+121.378+262.991+120.978+264.591C120.382+266.975+118.614+269.319+117.448+271.65C111.879+282.79+102.93+293.936+93.0357+301.357C90.9113+302.95+89.5605+305.36+87.4473+306.945C79.2764+313.074+69.063+318.895+59.2109+321.358C56.6999+321.985+54.5287+324.005+51.8576+324.005" fill="none" stroke-linecap="round" opacity="0.7" stroke-linejoin="round"/>
<path stroke="#83b68e" stroke-width="1" d="M240.095+192.556C242.346+190.306+245.342+189.366+247.84+187.492C252.489+184.005+257.136+180.961+262.138+177.96C265.988+175.65+269.091+171.926+272.564+169.321C275.584+167.056+279.133+165.32+282.394+163.364C287.796+160.123+292.759+156.192+298.182+152.938C306.568+147.906+319.371+142.657+325.288+134.767C328.162+130.936+328.932+127.149+330.65+122.852C332.406+118.462+334.92+113.819+333.927+108.852C333.589+107.162+332.722+105.494+332.438+103.788C332.165+102.151+331.941+99.1213+330.65+97.8307C329.679+96.8598+328.25+96.0199+327.374+94.8519C324.707+91.2961+321.761+86.5532+316.65+87.4049C310.718+88.3937+302.901+89.8753+297.586+93.0646C294.767+94.7557+292.033+96.754+289.245+98.4264C283.264+102.015+276.931+106.44+273.16+112.725C271.622+115.288+270.84+118.477+269.287+121.065C263.158+131.281+258.823+141.864+254.394+152.938C252.606+157.407+250.29+162.04+248.138+166.342C246.968+168.682+244.862+170.351+244.862+173.194" fill="none" stroke-linecap="round" opacity="0.7" stroke-linejoin="round"/>
<path stroke="#83b68e" stroke-width="1" d="M240.989+230.684C242.801+234.308+245.374+237.821+247.84+241.11C249.124+242.821+249.737+245.044+251.117+246.769C257.962+255.325+265.165+264.335+273.756+271.493C277.315+274.459+281.512+277.164+284.777+280.43C308.096+303.748+338.816+320.994+371.757+325.111C376.004+325.642+382.508+325.084+385.758+321.835C386.66+320.932+387.273+320.151+388.438+319.452C392.247+317.166+396.197+314.916+400.056+312.6C401.588+311.681+403.001+309.953+404.226+308.728C409.107+303.847+414.032+299.427+418.226+293.834C421.043+290.078+424.42+286.469+427.163+282.813C427.696+282.101+429.913+280.201+428.95+279.238C427.853+278.142+419.369+277.749+417.63+277.749C407.976+277.749+398.771+278.147+389.332+276.259C386.275+275.648+383.455+273.595+380.396+272.983C371.294+271.162+362.487+267.069+353.289+265.536C350.671+265.099+348.176+263.529+345.544+263.153C338.754+262.183+332.048+260.076+325.288+258.387C301.27+252.382+276.357+243.774+257.074+227.705" fill="none" stroke-linecap="round" opacity="0.7" stroke-linejoin="round"/>
<path stroke="#83b68e" stroke-width="1" d="M243.968+50.1702L244.266+48.9787L245.159+48.6809L245.457+49.2766L245.457+49.2766" fill="none" stroke-linecap="round" opacity="0.7" stroke-linejoin="round"/>
</g>
</svg>